<svg id="レイヤー_1" data-name="レイヤー 1" xmlns="http://www.w3.org/2000/svg" viewBox="0 0 272.55 67.34"><defs><style>.cls-1{fill:#fff;}.cls-2{fill:#b5b4b4;}</style></defs><path id="path" class="cls-1" d="M286.85,331.65s-3.61-11,16.23-36.52,42.69-30.82,42.69-30.82S338,275.74,336.3,281.9c0,0,23.15-15.78,47.95-17.44,0,0-31.11,30.82-23.3,61.33,0,4.81-4.51,3.91-6.46-3.16s-2.77-30.21,20.29-52.9c0,0-20.44,4.66-46.15,20.59,0,0,3-10.67,6.77-16.84,0,0-16.84,11.13-28.41,24S286.85,331.65,286.85,331.65Z" transform="translate(-286.59 -264.31)"/><path id="path-2" data-name="path" class="cls-1" d="M378.61,318.11h-4.15l6.33-18.33h5l6.32,18.33H388L383.36,304h-.15Zm-.25-7.2h9.8v3h-9.8Z" transform="translate(-286.59 -264.31)"/><path id="path-3" data-name="path" class="cls-1" d="M407.12,304.37l-4.81,13.74H398l-4.8-13.74h4l2.86,9.83h.14l2.84-9.83Z" transform="translate(-286.59 -264.31)"/><path id="path-4" data-name="path" class="cls-1" d="M413.7,318.37a5.62,5.62,0,0,1-2.34-.46,3.71,3.71,0,0,1-1.63-1.37,4.1,4.1,0,0,1-.59-2.27,4,4,0,0,1,.42-1.92,3.3,3.3,0,0,1,1.15-1.25,5.37,5.37,0,0,1,1.65-.72,11.71,11.71,0,0,1,1.94-.34c.8-.08,1.44-.16,1.93-.24a2.64,2.64,0,0,0,1.07-.33.75.75,0,0,0,.33-.67v-.05a1.65,1.65,0,0,0-.53-1.31,2.19,2.19,0,0,0-1.51-.47,2.7,2.7,0,0,0-1.64.45,2.14,2.14,0,0,0-.8,1.13l-3.53-.28a4.76,4.76,0,0,1,1.06-2.17,5.1,5.1,0,0,1,2-1.42,7.87,7.87,0,0,1,2.9-.49,8.76,8.76,0,0,1,2.19.27,5.39,5.39,0,0,1,1.87.83,4.09,4.09,0,0,1,1.3,1.44,4.47,4.47,0,0,1,.47,2.11v9.27h-3.61v-1.9h-.11a3.87,3.87,0,0,1-.89,1.13,4,4,0,0,1-1.33.76A5.5,5.5,0,0,1,413.7,318.37Zm1.09-2.63a3.24,3.24,0,0,0,1.49-.33,2.7,2.7,0,0,0,1-.91,2.43,2.43,0,0,0,.37-1.3v-1.46a1.89,1.89,0,0,1-.49.21c-.21.06-.44.12-.69.17s-.52.1-.77.13l-.7.11a4.52,4.52,0,0,0-1.17.31,1.82,1.82,0,0,0-.78.58,1.4,1.4,0,0,0-.28.9,1.35,1.35,0,0,0,.57,1.18A2.43,2.43,0,0,0,414.79,315.74Z" transform="translate(-286.59 -264.31)"/><path id="path-5" data-name="path" class="cls-1" d="M425.57,323.27v-18.9h3.76v2.3h.17a5.25,5.25,0,0,1,.73-1.13,3.85,3.85,0,0,1,1.25-1,4.28,4.28,0,0,1,1.93-.39,5.2,5.2,0,0,1,2.77.78,5.49,5.49,0,0,1,2,2.35,10.57,10.57,0,0,1,0,7.82,5.54,5.54,0,0,1-2,2.39,5.14,5.14,0,0,1-2.83.81,4.4,4.4,0,0,1-1.88-.37,3.84,3.84,0,0,1-1.27-.93,4.43,4.43,0,0,1-.75-1.13h-.12v7.36Zm3.73-12a6,6,0,0,0,.34,2.14,3.19,3.19,0,0,0,1,1.42,2.69,2.69,0,0,0,3.14,0,3.25,3.25,0,0,0,1-1.43,6,6,0,0,0,.34-2.12,6.17,6.17,0,0,0-.33-2.1,3.12,3.12,0,0,0-1-1.41,2.46,2.46,0,0,0-1.58-.51,2.49,2.49,0,0,0-1.57.49,3.11,3.11,0,0,0-1,1.4A6,6,0,0,0,429.3,311.24Z" transform="translate(-286.59 -264.31)"/><path id="path-6" data-name="path" class="cls-1" d="M467,306.2h-3.92a3.89,3.89,0,0,0-.44-1.36,3.6,3.6,0,0,0-.85-1,3.86,3.86,0,0,0-1.2-.65,4.86,4.86,0,0,0-1.46-.22,4.37,4.37,0,0,0-2.48.7,4.53,4.53,0,0,0-1.63,2,9.51,9.51,0,0,0,0,6.54,4.27,4.27,0,0,0,4.08,2.7,4.79,4.79,0,0,0,1.45-.21,4,4,0,0,0,1.19-.6,3.53,3.53,0,0,0,.86-1,3.81,3.81,0,0,0,.48-1.3l3.92,0a7.27,7.27,0,0,1-2.38,4.51,7.5,7.5,0,0,1-2.42,1.45,8.91,8.91,0,0,1-3.16.53,8.64,8.64,0,0,1-4.38-1.11,7.86,7.86,0,0,1-3-3.21,12.2,12.2,0,0,1,0-10.19,7.87,7.87,0,0,1,3.07-3.21,8.52,8.52,0,0,1,4.34-1.11,9.42,9.42,0,0,1,3,.45,7.63,7.63,0,0,1,2.42,1.3,6.86,6.86,0,0,1,1.72,2.09A8.08,8.08,0,0,1,467,306.2Z" transform="translate(-286.59 -264.31)"/><path id="path-7" data-name="path" class="cls-1" d="M477.1,318.38a7,7,0,0,1-3.6-.89,6,6,0,0,1-2.34-2.49,8,8,0,0,1-.82-3.71,8,8,0,0,1,.82-3.73,6,6,0,0,1,2.34-2.48,7.73,7.73,0,0,1,7.2,0,6,6,0,0,1,2.34,2.48,8,8,0,0,1,.82,3.73A8,8,0,0,1,483,315a6,6,0,0,1-2.34,2.49A7,7,0,0,1,477.1,318.38Zm0-2.95a2.35,2.35,0,0,0,1.58-.54,3.44,3.44,0,0,0,1-1.49,7.07,7.07,0,0,0,0-4.27,3.38,3.38,0,0,0-1-1.49,2.35,2.35,0,0,0-1.58-.55,2.44,2.44,0,0,0-1.61.55,3.23,3.23,0,0,0-1,1.49,7.07,7.07,0,0,0,0,4.27,3.29,3.29,0,0,0,1,1.49A2.43,2.43,0,0,0,477.12,315.43Z" transform="translate(-286.59 -264.31)"/><path id="path-8" data-name="path" class="cls-1" d="M489.38,318.34a2.08,2.08,0,0,1-1.52-.63,2.12,2.12,0,0,1,0-3,2.15,2.15,0,0,1,3,0,2.08,2.08,0,0,1,.35,2.59,2.24,2.24,0,0,1-.79.77A1.94,1.94,0,0,1,489.38,318.34Z" transform="translate(-286.59 -264.31)"/><path id="path-9" data-name="path" class="cls-1" d="M499.35,315.61l-.09,1a14,14,0,0,1-.45,2.36c-.21.78-.44,1.49-.68,2.13s-.42,1.14-.56,1.51H495.1c.09-.36.21-.85.36-1.48s.3-1.33.44-2.11a17.13,17.13,0,0,0,.26-2.39l0-1Z" transform="translate(-286.59 -264.31)"/><path id="path-10" data-name="path" class="cls-1" d="M511.69,318.11V299.78h3.88v15.14h7.85v3.19Z" transform="translate(-286.59 -264.31)"/><path id="path-11" data-name="path" class="cls-1" d="M534.1,304.37v2.86h-8.28v-2.86Zm-6.4-3.3h3.81v12.82a1.71,1.71,0,0,0,.16.82.87.87,0,0,0,.45.4,1.79,1.79,0,0,0,.68.12,3.29,3.29,0,0,0,.54-.05l.41-.08.6,2.84q-.29.09-.81.21a6.91,6.91,0,0,1-1.26.15,5.69,5.69,0,0,1-2.41-.37,3.4,3.4,0,0,1-1.61-1.3,4,4,0,0,1-.56-2.24Z" transform="translate(-286.59 -264.31)"/><path id="path-12" data-name="path" class="cls-1" d="M543,318.34a5.14,5.14,0,0,1-2.83-.81,5.54,5.54,0,0,1-2-2.39,9.2,9.2,0,0,1-.74-3.88,9,9,0,0,1,.76-3.94,5.49,5.49,0,0,1,2-2.35,5.18,5.18,0,0,1,2.77-.78,4.28,4.28,0,0,1,1.93.39,3.85,3.85,0,0,1,1.25,1,4.89,4.89,0,0,1,.73,1.13H547v-6.89h3.8v18.33H547v-2.2h-.16a5,5,0,0,1-.75,1.13,3.9,3.9,0,0,1-1.26.93A4.48,4.48,0,0,1,543,318.34Zm1.21-3a2.49,2.49,0,0,0,1.56-.5,3.1,3.1,0,0,0,1-1.42,6,6,0,0,0,.35-2.14,6,6,0,0,0-.34-2.13,3.19,3.19,0,0,0-1-1.4,2.51,2.51,0,0,0-1.57-.49,2.46,2.46,0,0,0-1.58.51,3.12,3.12,0,0,0-1,1.41,6.17,6.17,0,0,0-.33,2.1,6,6,0,0,0,.34,2.12,3.17,3.17,0,0,0,1,1.43A2.46,2.46,0,0,0,544.16,315.3Z" transform="translate(-286.59 -264.31)"/><path id="path-13" data-name="path" class="cls-1" d="M557,318.34a2.08,2.08,0,0,1-1.52-.63,2.12,2.12,0,0,1,0-3,2.15,2.15,0,0,1,3,0,2.1,2.1,0,0,1,.34,2.59,2.3,2.3,0,0,1-.78.77A2,2,0,0,1,557,318.34Z" transform="translate(-286.59 -264.31)"/><path id="path-14" data-name="path" class="cls-2" d="M378.29,285.78h2.06l2.16,5.29h.1l2.16-5.29h2.06v7.87h-1.62v-5.13h-.06l-2,5.09H382l-2-5.1h-.06v5.14h-1.62Z" transform="translate(-286.59 -264.31)"/><path id="path-15" data-name="path" class="cls-2" d="M390.12,293.65h-1.78l2.71-7.87h2.15l2.71,7.87h-1.78l-2-6.08h-.06Zm-.11-3.1h4.21v1.3H390Z" transform="translate(-286.59 -264.31)"/><path id="path-16" data-name="path" class="cls-2" d="M397.48,293.65v-7.87h1.66v3.47h.1l2.84-3.47h2l-2.92,3.52,3,4.35h-2L400,290.41l-.82,1v2.24Z" transform="translate(-286.59 -264.31)"/><path id="path-17" data-name="path" class="cls-2" d="M406.07,293.65v-7.87h5.3v1.37h-3.64V289h3.37v1.38h-3.37v1.88h3.65v1.37Z" transform="translate(-286.59 -264.31)"/><path id="path-18" data-name="path" class="cls-1" d="M420.48,285.78v7.87h-1.67v-7.87Z" transform="translate(-286.59 -264.31)"/><path id="path-19" data-name="path" class="cls-1" d="M422.42,287.15v-1.37h6.46v1.37h-2.41v6.5h-1.65v-6.5Z" transform="translate(-286.59 -264.31)"/><path id="path-20" data-name="path" class="cls-2" d="M436.56,293.65h-1.79l2.72-7.87h2.14l2.72,7.87h-1.79l-2-6.08h-.06Zm.14-3.1h4.22v1.3H436.7Z" transform="translate(-286.59 -264.31)"/><path id="path-21" data-name="path" class="cls-2" d="M444.7,285.78l1.9,6h.08l1.9-6h1.85l-2.72,7.87h-2.14l-2.72-7.87Z" transform="translate(-286.59 -264.31)"/><path id="path-22" data-name="path" class="cls-2" d="M452.72,293.65h-1.79l2.72-7.87h2.14l2.72,7.87h-1.79l-2-6.08h-.06Zm.14-3.1h4.22v1.3h-4.22Z" transform="translate(-286.59 -264.31)"/><path id="path-23" data-name="path" class="cls-2" d="M462.16,285.78v7.87H460.5v-7.87Z" transform="translate(-286.59 -264.31)"/><path id="path-24" data-name="path" class="cls-2" d="M464.67,293.65v-7.87h1.66v6.5h3.38v1.37Z" transform="translate(-286.59 -264.31)"/><path id="path-25" data-name="path" class="cls-2" d="M473,293.65h-1.79l2.72-7.87h2.15l2.71,7.87H477l-2-6.08H475Zm.14-3.1h4.22v1.3h-4.22Z" transform="translate(-286.59 -264.31)"/><path id="path-26" data-name="path" class="cls-2" d="M480.28,293.65v-7.87h3.15a3.59,3.59,0,0,1,1.45.25,1.91,1.91,0,0,1,.87.72,1.84,1.84,0,0,1,.3,1,1.62,1.62,0,0,1-.19.81,1.53,1.53,0,0,1-.5.57,2.29,2.29,0,0,1-.73.32v.07a1.84,1.84,0,0,1,1.48.91,2,2,0,0,1,.25,1,2,2,0,0,1-.32,1.12,2.07,2.07,0,0,1-.91.78,3.63,3.63,0,0,1-1.49.28Zm1.67-4.58h1.23a1.48,1.48,0,0,0,.61-.12,1,1,0,0,0,.42-.34,1,1,0,0,0-.14-1.23,1.3,1.3,0,0,0-.86-.26H482Zm0,3.22h1.35a1.58,1.58,0,0,0,1-.27.88.88,0,0,0,.32-.71,1.12,1.12,0,0,0-.16-.58,1.07,1.07,0,0,0-.45-.39,1.47,1.47,0,0,0-.69-.14H482Z" transform="translate(-286.59 -264.31)"/><path id="path-27" data-name="path" class="cls-2" d="M488.21,293.65v-7.87h1.67v6.5h3.37v1.37Z" transform="translate(-286.59 -264.31)"/><path id="path-28" data-name="path" class="cls-2" d="M495.21,293.65v-7.87h5.3v1.37h-3.64V289h3.37v1.38h-3.37v1.88h3.66v1.37Z" transform="translate(-286.59 -264.31)"/></svg>