<svg xmlns="http://www.w3.org/2000/svg" viewBox="0 0 272.55 67.34">
  <defs>
    <style>
      .cls-1 {
        fill: #141414;
      }

      .cls-2 {
        fill: #b4b4b4;
      }

      @media (prefers-color-scheme: dark) {
        .cls-1 {
          fill: #fbfbfb;
        }

        .cls-2 {
          fill: #b5b4b4;
        }
      }
    </style>

  </defs>

  <path class="cls-1" d="M15.26,83.56S11.66,72.58,31.5,47,74.18,16.22,74.18,16.22,66.37,27.64,64.71,33.8c0,0,23.15-15.78,48-17.43,0,0-31.11,30.81-23.3,61.32,0,4.81-4.5,3.91-6.46-3.15s-2.77-30.22,20.29-52.91c0,0-20.44,4.66-46.14,20.59,0,0,3-10.67,6.76-16.83,0,0-16.83,11.12-28.41,24S15.26,83.56,15.26,83.56Z" transform="translate(-15.01 -16.22)"/>
  <path class="cls-1" d="M107,70h-4.15l6.32-18.33h5L120.51,70h-4.15l-4.59-14.15h-.14Zm-.26-7.21h9.8v3h-9.8Z" transform="translate(-15.01 -16.22)"/>
  <path class="cls-1" d="M135.53,56.27,130.73,70h-4.3l-4.8-13.75h4l2.86,9.83h.14l2.85-9.83Z" transform="translate(-15.01 -16.22)"/>
  <path class="cls-1" d="M142.12,70.27a5.66,5.66,0,0,1-2.35-.46,3.66,3.66,0,0,1-1.62-1.36,4.62,4.62,0,0,1-.18-4.2A3.46,3.46,0,0,1,139.12,63a5.37,5.37,0,0,1,1.65-.72,13.21,13.21,0,0,1,1.95-.34c.79-.08,1.44-.16,1.93-.23a2.73,2.73,0,0,0,1.06-.34.75.75,0,0,0,.33-.66v-.06a1.63,1.63,0,0,0-.53-1.31,2.22,2.22,0,0,0-1.51-.47,2.61,2.61,0,0,0-1.63.46,2.07,2.07,0,0,0-.81,1.13L138,60.17A4.89,4.89,0,0,1,139.09,58a5.18,5.18,0,0,1,2-1.41,7.77,7.77,0,0,1,2.89-.5,8.78,8.78,0,0,1,2.2.27,5.77,5.77,0,0,1,1.87.83,4.19,4.19,0,0,1,1.29,1.45,4.31,4.31,0,0,1,.47,2.1V70h-3.61V68.11h-.11a3.71,3.71,0,0,1-.88,1.13,3.9,3.9,0,0,1-1.34.76A5.43,5.43,0,0,1,142.12,70.27Zm1.09-2.63a3.19,3.19,0,0,0,1.48-.33,2.63,2.63,0,0,0,1-.91,2.3,2.3,0,0,0,.37-1.3V63.64a1.75,1.75,0,0,1-.49.21,5,5,0,0,1-.69.17l-.77.14-.7.1a5,5,0,0,0-1.17.31,2,2,0,0,0-.78.58,1.46,1.46,0,0,0-.28.9,1.38,1.38,0,0,0,.57,1.19A2.44,2.44,0,0,0,143.21,67.64Z" transform="translate(-15.01 -16.22)"/>
  <path class="cls-1" d="M154,75.17V56.27h3.76v2.31h.17a5,5,0,0,1,.73-1.13,3.84,3.84,0,0,1,1.25-1,4.28,4.28,0,0,1,1.93-.39,5.18,5.18,0,0,1,2.77.78,5.39,5.39,0,0,1,2,2.36,8.94,8.94,0,0,1,.76,3.93,9.17,9.17,0,0,1-.73,3.88,5.49,5.49,0,0,1-2,2.39,5.11,5.11,0,0,1-2.83.81,4.29,4.29,0,0,1-1.88-.37,3.82,3.82,0,0,1-1.27-.92,4.76,4.76,0,0,1-.75-1.14h-.12v7.36Zm3.73-12a6.28,6.28,0,0,0,.34,2.14,3.19,3.19,0,0,0,1,1.42,2.43,2.43,0,0,0,1.56.5,2.47,2.47,0,0,0,1.58-.51,3.21,3.21,0,0,0,1-1.43,6.25,6.25,0,0,0,.33-2.12,6.07,6.07,0,0,0-.33-2.09,3.13,3.13,0,0,0-1-1.42,2.72,2.72,0,0,0-3.16,0,3.1,3.1,0,0,0-1,1.39A6.22,6.22,0,0,0,157.71,63.14Z" transform="translate(-15.01 -16.22)"/>
  <path class="cls-1" d="M195.38,58.1h-3.92a3.83,3.83,0,0,0-.44-1.35,3.36,3.36,0,0,0-.85-1,3.68,3.68,0,0,0-1.19-.64,4.61,4.61,0,0,0-1.46-.23,4.35,4.35,0,0,0-2.48.71,4.55,4.55,0,0,0-1.64,2,8.06,8.06,0,0,0-.58,3.24,8.15,8.15,0,0,0,.58,3.29,4.46,4.46,0,0,0,1.65,2,4.41,4.41,0,0,0,2.44.68,4.73,4.73,0,0,0,1.44-.21,3.7,3.7,0,0,0,1.19-.6,3.64,3.64,0,0,0,.86-1,3.86,3.86,0,0,0,.48-1.31l3.92,0A7.27,7.27,0,0,1,193,68.28a7.45,7.45,0,0,1-2.41,1.45,8.73,8.73,0,0,1-3.16.54,8.59,8.59,0,0,1-4.38-1.11,7.76,7.76,0,0,1-3-3.22,10.66,10.66,0,0,1-1.12-5.09,10.68,10.68,0,0,1,1.13-5.1,7.9,7.9,0,0,1,3.06-3.21,8.68,8.68,0,0,1,4.35-1.1,9.65,9.65,0,0,1,2.95.44,7.54,7.54,0,0,1,2.42,1.31,6.6,6.6,0,0,1,1.72,2.09A7.77,7.77,0,0,1,195.38,58.1Z" transform="translate(-15.01 -16.22)"/>
  <path class="cls-1" d="M205.51,70.28a6.92,6.92,0,0,1-3.6-.89,6,6,0,0,1-2.34-2.48,8.85,8.85,0,0,1,0-7.44A6,6,0,0,1,201.91,57a7.73,7.73,0,0,1,7.2,0,6,6,0,0,1,2.34,2.49,8.75,8.75,0,0,1,0,7.44,6,6,0,0,1-2.34,2.48A6.92,6.92,0,0,1,205.51,70.28Zm0-3a2.35,2.35,0,0,0,1.58-.54,3.33,3.33,0,0,0,1-1.48,7.32,7.32,0,0,0,0-4.28,3.28,3.28,0,0,0-1-1.48,2.31,2.31,0,0,0-1.58-.55,2.4,2.4,0,0,0-1.61.55A3.28,3.28,0,0,0,203,61a7.1,7.1,0,0,0,0,4.28,3.33,3.33,0,0,0,1,1.48A2.45,2.45,0,0,0,205.53,67.33Z" transform="translate(-15.01 -16.22)"/>
  <path class="cls-1" d="M217.79,70.25a2.05,2.05,0,0,1-1.51-.63,2.08,2.08,0,0,1-.63-1.52,2,2,0,0,1,.63-1.5,2.05,2.05,0,0,1,1.51-.63,2.1,2.1,0,0,1,1.51.63,2.08,2.08,0,0,1,.34,2.58,2.42,2.42,0,0,1-.78.78A2.1,2.1,0,0,1,217.79,70.25Z" transform="translate(-15.01 -16.22)"/>
  <path class="cls-1" d="M227.77,67.51l-.1,1a14.84,14.84,0,0,1-.44,2.36c-.22.79-.45,1.5-.68,2.14l-.57,1.5h-2.47l.37-1.47c.15-.63.3-1.34.44-2.12a18.78,18.78,0,0,0,.25-2.39l.05-1Z" transform="translate(-15.01 -16.22)"/>
  <path class="cls-1" d="M240.11,70V51.69H244V66.82h7.85V70Z" transform="translate(-15.01 -16.22)"/>
  <path class="cls-1" d="M262.51,56.27v2.86h-8.28V56.27ZM256.11,53h3.81V65.79a1.8,1.8,0,0,0,.16.82.92.92,0,0,0,.46.41,2,2,0,0,0,.67.11,2.47,2.47,0,0,0,.54,0l.41-.07.6,2.84c-.19.06-.46.12-.81.21a6.11,6.11,0,0,1-1.26.14,5.7,5.7,0,0,1-2.41-.36,3.35,3.35,0,0,1-1.6-1.31,4,4,0,0,1-.57-2.24Z" transform="translate(-15.01 -16.22)"/>
  <path class="cls-1" d="M271.37,70.24a5.17,5.17,0,0,1-2.84-.81,5.54,5.54,0,0,1-2-2.39,10.54,10.54,0,0,1,0-7.81,5.46,5.46,0,0,1,2-2.36,5.19,5.19,0,0,1,2.78-.78,4.21,4.21,0,0,1,1.92.39,3.78,3.78,0,0,1,1.26,1,5,5,0,0,1,.73,1.13h.11V51.69h3.8V70h-3.75V67.81h-.16a4.82,4.82,0,0,1-.76,1.14,3.88,3.88,0,0,1-1.26.92A4.32,4.32,0,0,1,271.37,70.24Zm1.2-3a2.39,2.39,0,0,0,1.56-.5,3.19,3.19,0,0,0,1-1.42,6.87,6.87,0,0,0,0-4.27,3,3,0,0,0-1-1.39,2.71,2.71,0,0,0-3.15,0,3.23,3.23,0,0,0-1,1.42,6.07,6.07,0,0,0-.33,2.09,6.24,6.24,0,0,0,.34,2.12,3.19,3.19,0,0,0,1,1.43A2.47,2.47,0,0,0,272.57,67.2Z" transform="translate(-15.01 -16.22)"/>
  <path class="cls-1" d="M285.41,70.25a2.15,2.15,0,0,1-2.15-2.15,2,2,0,0,1,.63-1.5,2.12,2.12,0,0,1,3,0,2,2,0,0,1,.65,1.5,2,2,0,0,1-.3,1.08,2.42,2.42,0,0,1-.78.78A2.1,2.1,0,0,1,285.41,70.25Z" transform="translate(-15.01 -16.22)"/>
  <path class="cls-2" d="M106.71,37.68h2.05L110.93,43H111l2.17-5.29h2v7.87h-1.61V40.43h-.07l-2,5.08h-1.1l-2-5.1h-.07v5.14h-1.61Z" transform="translate(-15.01 -16.22)"/>
  <path class="cls-2" d="M118.53,45.55h-1.78l2.72-7.87h2.14l2.71,7.87h-1.78l-2-6.07h-.06Zm-.11-3.09h4.21v1.3h-4.21Z" transform="translate(-15.01 -16.22)"/>
  <path class="cls-2" d="M125.89,45.55V37.68h1.66v3.47h.11l2.83-3.47h2l-2.92,3.52,3,4.35h-2l-2.16-3.23-.82,1v2.23Z" transform="translate(-15.01 -16.22)"/>
  <path class="cls-2" d="M134.48,45.55V37.68h5.3v1.37h-3.64v1.88h3.37V42.3h-3.37v1.88h3.66v1.37Z" transform="translate(-15.01 -16.22)"/>
  <path class="cls-1" d="M148.89,37.68v7.87h-1.66V37.68Z" transform="translate(-15.01 -16.22)"/>
  <path class="cls-1" d="M150.83,39.05V37.68h6.46v1.37h-2.41v6.5h-1.64v-6.5Z" transform="translate(-15.01 -16.22)"/>
  <path class="cls-2" d="M165,45.55h-1.78l2.71-7.87h2.15l2.71,7.87H169l-2-6.07h-.07Zm.15-3.09h4.21v1.3h-4.21Z" transform="translate(-15.01 -16.22)"/>
  <path class="cls-2" d="M173.11,37.68l1.91,6h.07l1.91-6h1.84l-2.71,7.87H174l-2.71-7.87Z" transform="translate(-15.01 -16.22)"/>
  <path class="cls-2" d="M181.13,45.55h-1.78l2.71-7.87h2.15l2.71,7.87h-1.78l-2-6.07h-.07Zm.15-3.09h4.21v1.3h-4.21Z" transform="translate(-15.01 -16.22)"/>
  <path class="cls-2" d="M190.57,37.68v7.87h-1.66V37.68Z" transform="translate(-15.01 -16.22)"/>
  <path class="cls-2" d="M193.08,45.55V37.68h1.67v6.5h3.37v1.37Z" transform="translate(-15.01 -16.22)"/>
  <path class="cls-2" d="M201.44,45.55h-1.78l2.71-7.87h2.15l2.71,7.87h-1.78l-2-6.07h-.06Zm.15-3.09h4.21v1.3h-4.21Z" transform="translate(-15.01 -16.22)"/>
  <path class="cls-2" d="M208.7,45.55V37.68h3.15a3.62,3.62,0,0,1,1.45.26,2,2,0,0,1,.87.71,1.92,1.92,0,0,1,.29,1.05,1.58,1.58,0,0,1-.69,1.38,2.18,2.18,0,0,1-.73.31v.08a1.68,1.68,0,0,1,.84.25,1.77,1.77,0,0,1,.64.66,1.88,1.88,0,0,1,.25,1,2.08,2.08,0,0,1-.31,1.11,2.12,2.12,0,0,1-.91.78,3.51,3.51,0,0,1-1.49.28ZM210.36,41h1.23a1.48,1.48,0,0,0,.61-.12,1,1,0,0,0,.43-.34,1,1,0,0,0,.15-.54.85.85,0,0,0-.3-.68,1.25,1.25,0,0,0-.86-.27h-1.26Zm0,3.22h1.36a1.54,1.54,0,0,0,1-.27.87.87,0,0,0,.32-.71,1,1,0,0,0-.16-.57,1,1,0,0,0-.45-.4,1.59,1.59,0,0,0-.68-.14h-1.4Z" transform="translate(-15.01 -16.22)"/>
  <path class="cls-2" d="M216.63,45.55V37.68h1.66v6.5h3.38v1.37Z" transform="translate(-15.01 -16.22)"/>
  <path class="cls-2" d="M223.62,45.55V37.68h5.3v1.37h-3.63v1.88h3.36V42.3h-3.36v1.88h3.65v1.37Z" transform="translate(-15.01 -16.22)"/>
</svg>
